<?xml version="1.0" encoding="UTF-8" standalone="no"?>
<!-- Created with Inkscape (http://www.inkscape.org/) -->

<svg
   xmlns:dc="http://purl.org/dc/elements/1.1/"
   xmlns:cc="http://creativecommons.org/ns#"
   xmlns:rdf="http://www.w3.org/1999/02/22-rdf-syntax-ns#"
   xmlns:svg="http://www.w3.org/2000/svg"
   xmlns="http://www.w3.org/2000/svg"
   xmlns:sodipodi="http://sodipodi.sourceforge.net/DTD/sodipodi-0.dtd"
   xmlns:inkscape="http://www.inkscape.org/namespaces/inkscape"
   version="1.1"
   id="svg2"
   xml:space="preserve"
   width="184"
   height="210.66667"
   viewBox="0 0 184 210.66667"
   sodipodi:docname="black_rabbit.svg"
   inkscape:version="0.92.2 5c3e80d, 2017-08-06"><metadata
     id="metadata8"><rdf:RDF><cc:Work
         rdf:about=""><dc:format>image/svg+xml</dc:format><dc:type
           rdf:resource="http://purl.org/dc/dcmitype/StillImage" /><dc:title></dc:title></cc:Work></rdf:RDF></metadata><defs
     id="defs6" /><sodipodi:namedview
     pagecolor="#ffffff"
     bordercolor="#666666"
     borderopacity="1"
     objecttolerance="10"
     gridtolerance="10"
     guidetolerance="10"
     inkscape:pageopacity="0"
     inkscape:pageshadow="2"
     inkscape:window-width="748"
     inkscape:window-height="480"
     id="namedview4"
     showgrid="false"
     inkscape:zoom="1.1202531"
     inkscape:cx="92"
     inkscape:cy="105.33334"
     inkscape:window-x="0"
     inkscape:window-y="0"
     inkscape:window-maximized="0"
     inkscape:current-layer="g10" /><g
     id="g10"
     inkscape:groupmode="layer"
     inkscape:label="ink_ext_XXXXXX"
     transform="matrix(1.3333333,0,0,-1.3333333,0,210.66667)"><g
       id="g12"
       transform="scale(0.1)"><path
         d="m 608.328,983.359 c 140.578,-18.386 174.945,-24.328 304.449,-73.554 13.914,-18.953 42.598,115.425 39.192,189.545 -43.739,123.91 -37.203,114.58 -64.184,205.67 -34.082,94.49 -48.847,175.39 -36.637,267.62 153.932,-147.39 222.652,-399.17 260.142,-402.57 67.88,227.17 77.82,249.52 201.64,347.12 37.21,12.45 98.55,-67.33 24.71,-220.66 -47.14,-126.46 -57.37,-123.06 -73.84,-184.17 74.13,-80.34 30.11,-70.44 61.63,-122.774 -30.96,-55.168 43.17,-85.719 36.92,-171.723 16.19,-62.238 0,55.168 -24.71,-183.883 61.63,-92.226 -135.47,-159.839 -197.1,-331.558 -73.84,-104.109 246.51,-190.109 67.88,-269.8868 -86.33,-12.4493 -92.3,24.6093 -111.04,49.2226 -6.54,-0.5664 61.62,-79.77733 -67.59,-73.83592 -129.509,0 -92.591,148.80512 -172.395,220.94512 -23.856,0.567 -19.594,-41.871 -44.02,-63.371 C 871.598,139.754 931.234,57.1445 863.359,44.9805 660.867,30.5547 801.73,26.3086 647.805,87.6992 529.094,37.3438 512.336,-4.24219 358.406,20.3672 163.301,-6.50781 -29.5352,198.313 13.6328,333.258 c 44.8711,85.152 78.668,11.031 86.0508,-18.391 0,190.11 30.9574,196.051 98.5464,361.828 67.879,172.004 216.411,306.664 410.098,306.664"
         style="fill:#010101;fill-opacity:1;fill-rule:evenodd;stroke:none"
         id="path14"
         inkscape:connector-curvature="0" /><g
         id="g16"
         transform="scale(1.00194,0.99806)"><path
           d="M 607.15,985.271 C 413.838,985.271 265.594,850.349 197.847,678.011 130.388,511.911 99.4905,505.958 99.4905,315.479 92.122,344.958 58.3906,419.224 13.6064,333.906 -29.478,198.698 162.985,-6.52046 357.712,20.4068 511.344,-4.25043 528.069,37.4164 646.55,87.8697 800.178,26.3597 659.587,30.6141 861.687,45.0679 929.431,57.2556 869.91,140.026 811.8,165.818 c 24.378,21.542 20.125,64.062 43.934,63.494 79.65,-72.281 42.804,-221.37472 172.056,-221.37472 128.97,-5.95296 60.94,73.41202 67.46,73.97952 18.71,-24.6612 24.66,-61.7918 110.83,-49.3184 178.29,79.9326 -141.44,166.0996 -67.75,270.4116 61.51,172.052 258.23,239.797 196.72,332.203 24.66,239.516 40.82,121.881 24.66,184.24 6.24,86.171 -67.74,116.782 -36.85,172.057 -31.46,52.44 12.47,42.52 -61.51,123.02 16.44,61.22 26.65,57.82 73.7,184.52 73.7,153.63 12.47,233.56 -24.66,221.09 -123.58,-97.79 -133.51,-120.18 -201.25,-347.79 -37.41,3.4 -106.01,255.67 -259.64,403.35 -12.187,-92.41 2.55,-173.47 36.566,-268.14 26.928,-91.27 20.406,-81.92 64.059,-206.08 3.4,-74.26 -25.228,-208.896 -39.115,-189.907 -129.253,49.323 -163.554,55.276 -303.86,73.698 z"
           style="fill:none;stroke:#010101;stroke-width:14.17249966;stroke-linecap:butt;stroke-linejoin:round;stroke-miterlimit:10;stroke-dasharray:none;stroke-opacity:1"
           id="path18"
           inkscape:connector-curvature="0" /></g></g></g></svg>